<mxfile host="app.diagrams.net" agent="Mozilla/5.0 (Windows NT 10.0; Win64; x64) AppleWebKit/537.36 (KHTML, like Gecko) Chrome/131.0.0.0 Safari/537.36" version="24.9.0">
  <diagram name="Page-1" id="o0k33L58D-E4s63GWssi">
    <mxGraphModel dx="1050" dy="578" grid="1" gridSize="10" guides="1" tooltips="1" connect="1" arrows="1" fold="1" page="1" pageScale="1" pageWidth="850" pageHeight="1100" math="0" shadow="0">
      <root>
        <mxCell id="0" />
        <mxCell id="1" parent="0" />
        <mxCell id="GkA27SqyECnTiXz3pzRI-1" value="Logged out" style="rounded=1;whiteSpace=wrap;html=1;" vertex="1" parent="1">
          <mxGeometry x="360" y="140" width="120" height="60" as="geometry" />
        </mxCell>
        <mxCell id="GkA27SqyECnTiXz3pzRI-2" value="" style="ellipse;html=1;shape=startState;fillColor=#000000;strokeColor=#ff0000;" vertex="1" parent="1">
          <mxGeometry x="405" y="40" width="30" height="40" as="geometry" />
        </mxCell>
        <mxCell id="GkA27SqyECnTiXz3pzRI-3" value="" style="edgeStyle=orthogonalEdgeStyle;html=1;verticalAlign=bottom;endArrow=open;endSize=8;strokeColor=#ff0000;rounded=0;" edge="1" source="GkA27SqyECnTiXz3pzRI-2" parent="1">
          <mxGeometry relative="1" as="geometry">
            <mxPoint x="420" y="140" as="targetPoint" />
          </mxGeometry>
        </mxCell>
        <mxCell id="GkA27SqyECnTiXz3pzRI-4" value="logged in" style="rounded=1;whiteSpace=wrap;html=1;" vertex="1" parent="1">
          <mxGeometry x="360" y="280" width="120" height="60" as="geometry" />
        </mxCell>
        <mxCell id="GkA27SqyECnTiXz3pzRI-7" value="" style="endArrow=classic;html=1;rounded=0;exitX=0.25;exitY=1;exitDx=0;exitDy=0;exitPerimeter=0;entryX=0.25;entryY=0;entryDx=0;entryDy=0;" edge="1" parent="1" source="GkA27SqyECnTiXz3pzRI-1" target="GkA27SqyECnTiXz3pzRI-4">
          <mxGeometry width="50" height="50" relative="1" as="geometry">
            <mxPoint x="710" y="200" as="sourcePoint" />
            <mxPoint x="550" y="270" as="targetPoint" />
            <Array as="points" />
          </mxGeometry>
        </mxCell>
        <mxCell id="GkA27SqyECnTiXz3pzRI-8" value="Login()" style="text;html=1;align=center;verticalAlign=middle;resizable=0;points=[];autosize=1;strokeColor=none;fillColor=none;" vertex="1" parent="1">
          <mxGeometry x="330" y="218" width="60" height="30" as="geometry" />
        </mxCell>
        <mxCell id="GkA27SqyECnTiXz3pzRI-9" value="" style="endArrow=classic;html=1;rounded=0;entryX=0.75;entryY=1;entryDx=0;entryDy=0;entryPerimeter=0;exitX=0.75;exitY=0;exitDx=0;exitDy=0;" edge="1" parent="1" source="GkA27SqyECnTiXz3pzRI-4" target="GkA27SqyECnTiXz3pzRI-1">
          <mxGeometry width="50" height="50" relative="1" as="geometry">
            <mxPoint x="450" y="270" as="sourcePoint" />
            <mxPoint x="460" y="280" as="targetPoint" />
          </mxGeometry>
        </mxCell>
        <mxCell id="GkA27SqyECnTiXz3pzRI-10" value="Logout()" style="text;html=1;align=center;verticalAlign=middle;resizable=0;points=[];autosize=1;strokeColor=none;fillColor=none;" vertex="1" parent="1">
          <mxGeometry x="445" y="228" width="70" height="30" as="geometry" />
        </mxCell>
        <mxCell id="GkA27SqyECnTiXz3pzRI-11" value="Managing Reports" style="rounded=1;whiteSpace=wrap;html=1;" vertex="1" parent="1">
          <mxGeometry x="160" y="400" width="120" height="60" as="geometry" />
        </mxCell>
        <mxCell id="GkA27SqyECnTiXz3pzRI-12" value="Blocking User" style="rounded=1;whiteSpace=wrap;html=1;" vertex="1" parent="1">
          <mxGeometry x="365" y="400" width="120" height="60" as="geometry" />
        </mxCell>
        <mxCell id="GkA27SqyECnTiXz3pzRI-14" value="Deleting Post" style="rounded=1;whiteSpace=wrap;html=1;" vertex="1" parent="1">
          <mxGeometry x="560" y="400" width="120" height="60" as="geometry" />
        </mxCell>
        <mxCell id="GkA27SqyECnTiXz3pzRI-15" value="" style="endArrow=classic;html=1;rounded=0;entryX=0.5;entryY=0;entryDx=0;entryDy=0;entryPerimeter=0;exitX=0;exitY=0.5;exitDx=0;exitDy=0;" edge="1" parent="1" source="GkA27SqyECnTiXz3pzRI-4" target="GkA27SqyECnTiXz3pzRI-11">
          <mxGeometry width="50" height="50" relative="1" as="geometry">
            <mxPoint x="410" y="330" as="sourcePoint" />
            <mxPoint x="460" y="280" as="targetPoint" />
          </mxGeometry>
        </mxCell>
        <mxCell id="GkA27SqyECnTiXz3pzRI-16" value="ManageReports()" style="text;html=1;align=center;verticalAlign=middle;resizable=0;points=[];autosize=1;strokeColor=none;fillColor=none;" vertex="1" parent="1">
          <mxGeometry x="210" y="318" width="120" height="30" as="geometry" />
        </mxCell>
        <mxCell id="GkA27SqyECnTiXz3pzRI-17" value="" style="endArrow=classic;html=1;rounded=0;entryX=0.5;entryY=0;entryDx=0;entryDy=0;exitX=0.5;exitY=1;exitDx=0;exitDy=0;" edge="1" parent="1" source="GkA27SqyECnTiXz3pzRI-4" target="GkA27SqyECnTiXz3pzRI-12">
          <mxGeometry width="50" height="50" relative="1" as="geometry">
            <mxPoint x="410" y="330" as="sourcePoint" />
            <mxPoint x="420" y="390" as="targetPoint" />
          </mxGeometry>
        </mxCell>
        <mxCell id="GkA27SqyECnTiXz3pzRI-18" value="BlockUser()" style="text;html=1;align=center;verticalAlign=middle;resizable=0;points=[];autosize=1;strokeColor=none;fillColor=none;" vertex="1" parent="1">
          <mxGeometry x="415" y="348" width="90" height="30" as="geometry" />
        </mxCell>
        <mxCell id="GkA27SqyECnTiXz3pzRI-19" value="" style="endArrow=classic;html=1;rounded=0;entryX=0.583;entryY=0;entryDx=0;entryDy=0;entryPerimeter=0;exitX=1;exitY=0.5;exitDx=0;exitDy=0;" edge="1" parent="1" source="GkA27SqyECnTiXz3pzRI-4" target="GkA27SqyECnTiXz3pzRI-14">
          <mxGeometry width="50" height="50" relative="1" as="geometry">
            <mxPoint x="410" y="330" as="sourcePoint" />
            <mxPoint x="460" y="280" as="targetPoint" />
          </mxGeometry>
        </mxCell>
        <mxCell id="GkA27SqyECnTiXz3pzRI-20" value="DeletePost()" style="text;html=1;align=center;verticalAlign=middle;resizable=0;points=[];autosize=1;strokeColor=none;fillColor=none;" vertex="1" parent="1">
          <mxGeometry x="505" y="298" width="90" height="30" as="geometry" />
        </mxCell>
        <mxCell id="GkA27SqyECnTiXz3pzRI-21" value="" style="ellipse;html=1;shape=endState;fillColor=#000000;strokeColor=#ff0000;" vertex="1" parent="1">
          <mxGeometry x="405" y="550" width="30" height="30" as="geometry" />
        </mxCell>
        <mxCell id="GkA27SqyECnTiXz3pzRI-22" value="" style="endArrow=classic;html=1;rounded=0;entryX=0.5;entryY=0;entryDx=0;entryDy=0;exitX=0.542;exitY=1;exitDx=0;exitDy=0;exitPerimeter=0;" edge="1" parent="1" source="GkA27SqyECnTiXz3pzRI-12" target="GkA27SqyECnTiXz3pzRI-21">
          <mxGeometry width="50" height="50" relative="1" as="geometry">
            <mxPoint x="410" y="400" as="sourcePoint" />
            <mxPoint x="460" y="350" as="targetPoint" />
          </mxGeometry>
        </mxCell>
        <mxCell id="GkA27SqyECnTiXz3pzRI-23" value="User blocked" style="text;html=1;align=center;verticalAlign=middle;resizable=0;points=[];autosize=1;strokeColor=none;fillColor=none;" vertex="1" parent="1">
          <mxGeometry x="415" y="488" width="90" height="30" as="geometry" />
        </mxCell>
        <mxCell id="GkA27SqyECnTiXz3pzRI-24" value="" style="endArrow=classic;html=1;rounded=0;exitX=0.5;exitY=1;exitDx=0;exitDy=0;exitPerimeter=0;entryX=0.833;entryY=0.667;entryDx=0;entryDy=0;entryPerimeter=0;" edge="1" parent="1" source="GkA27SqyECnTiXz3pzRI-14" target="GkA27SqyECnTiXz3pzRI-21">
          <mxGeometry width="50" height="50" relative="1" as="geometry">
            <mxPoint x="410" y="400" as="sourcePoint" />
            <mxPoint x="440" y="550" as="targetPoint" />
          </mxGeometry>
        </mxCell>
        <mxCell id="GkA27SqyECnTiXz3pzRI-25" value="Post deleted" style="text;html=1;align=center;verticalAlign=middle;resizable=0;points=[];autosize=1;strokeColor=none;fillColor=none;" vertex="1" parent="1">
          <mxGeometry x="515" y="508" width="90" height="30" as="geometry" />
        </mxCell>
        <mxCell id="GkA27SqyECnTiXz3pzRI-26" value="" style="endArrow=classic;html=1;rounded=0;exitX=0.5;exitY=1;exitDx=0;exitDy=0;exitPerimeter=0;" edge="1" parent="1" source="GkA27SqyECnTiXz3pzRI-11">
          <mxGeometry width="50" height="50" relative="1" as="geometry">
            <mxPoint x="410" y="400" as="sourcePoint" />
            <mxPoint x="410" y="550" as="targetPoint" />
          </mxGeometry>
        </mxCell>
        <mxCell id="GkA27SqyECnTiXz3pzRI-27" value="Reports processed" style="text;html=1;align=center;verticalAlign=middle;resizable=0;points=[];autosize=1;strokeColor=none;fillColor=none;" vertex="1" parent="1">
          <mxGeometry x="200" y="498" width="120" height="30" as="geometry" />
        </mxCell>
      </root>
    </mxGraphModel>
  </diagram>
</mxfile>
